# xmcd CD database file
#
# Track frame offsets:
#	150
#	21231
#	48972
#	66151
#	79560
#	96500
#	119740
#	144940
#	166296
#
# Disc length: 2388 seconds
#
# Revision: 0
# Processed by: cddbd v1.5PL3 Copyright (c) Steve Scherf et al.
# Submitted via: CDex 1.51
#
DISCID=76095209
DTITLE=Sojiro  - Kokoro
DYEAR=1987
DGENRE=New Age
TTITLE0=kokoro
TTITLE1=four seasons
TTITLE2=stream.
TTITLE3=childhood's memory
TTITLE4=early blooms
TTITLE5=drifting with the clouds
TTITLE6=shimmering horizon.
TTITLE7=inner light
TTITLE8=the god of mother earth
EXTD=YEAR: 1987
EXTT0=
EXTT1=
EXTT2=
EXTT3=
EXTT4=
EXTT5=
EXTT6=
EXTT7=
EXTT8=
PLAYORDER=
